<?xml version="1.0" standalone="no"?>
<!DOCTYPE svg PUBLIC "-//W3C//DTD SVG 20010904//EN"
 "http://www.w3.org/TR/2001/REC-SVG-20010904/DTD/svg10.dtd">
<svg version="1.0" xmlns="http://www.w3.org/2000/svg"
 width="511.000000pt" height="511.000000pt" viewBox="0 0 511.000000 511.000000"
 preserveAspectRatio="xMidYMid meet">
<metadata>
Created by potrace 1.14, written by Peter Selinger 2001-2017
</metadata>
<g transform="translate(0.000000,511.000000) scale(0.100000,-0.100000)"
fill="#000000" stroke="none">
<path d="M3748 4125 c-2 -1 -37 -5 -78 -9 -265 -23 -506 -111 -694 -254 -72
-56 -100 -82 -158 -154 -133 -163 -189 -328 -189 -558 -1 -264 101 -474 301
-619 38 -28 72 -51 74 -51 3 0 29 -14 58 -31 102 -61 342 -140 518 -173 14 -2
45 -9 70 -15 25 -5 61 -13 80 -16 51 -9 187 -44 251 -65 236 -76 321 -189 257
-341 -30 -70 -141 -138 -253 -155 -50 -8 -218 -8 -269 0 -201 29 -350 175
-372 362 -4 27 -8 51 -11 54 -2 2 -180 5 -394 5 l-390 0 2 -71 c4 -154 41
-318 100 -442 180 -388 586 -589 1194 -594 216 -2 319 7 509 47 57 12 234 79
295 112 303 164 464 439 456 780 -3 121 -13 184 -46 285 -36 113 -97 210 -184
299 -174 177 -408 284 -785 358 -68 14 -95 20 -117 26 -10 2 -49 11 -88 20
-170 37 -272 81 -337 146 -38 38 -48 55 -54 95 -14 93 24 174 102 220 69 41
137 55 264 55 234 1 367 -83 402 -253 l12 -58 397 0 397 0 -4 43 c-13 166 -33
252 -85 364 -135 297 -454 517 -824 568 -27 4 -63 9 -80 11 -34 5 -322 13
-327 9z"/>
<path d="M1421 4080 c-4 -3 -6 -482 -6 -1065 0 -583 -3 -1085 -7 -1115 -12
-82 -37 -139 -80 -186 -52 -56 -112 -79 -205 -78 -140 1 -231 76 -267 219 -9
35 -16 78 -16 95 0 16 -3 31 -7 31 -5 1 -192 2 -417 3 l-408 1 5 -100 c7 -117
11 -144 38 -245 74 -276 289 -491 587 -586 43 -13 88 -26 102 -29 149 -28 227
-36 350 -35 121 1 151 3 290 26 144 23 332 103 457 195 230 170 355 387 390
674 7 60 10 2171 3 2188 -4 9 -97 12 -403 12 -219 0 -402 -2 -406 -5z"/>
</g>
</svg>
